<svg xmlns="http://www.w3.org/2000/svg" width="1100" height="760" viewBox="0 0 1100 760">
<rect width="100%" height="100%" rx="24" fill="#fbfaf3"/>
<text x="55" y="50" font-family="Avenir, Helvetica, Arial, sans-serif" font-size="30" font-weight="700" fill="#283328">Cycling Performance Trend from Garmin CSV Exports</text>
<text x="55" y="78" font-family="Avenir, Helvetica, Arial, sans-serif" font-size="15" fill="#617060">Speed, heart rate, and cadence across six road rides</text>
<rect x="95" y="95" width="945" height="170" rx="14" fill="#fffdf5" stroke="#dfd8bd"/>
<line x1="95" y1="265.0" x2="1040" y2="265.0" stroke="#d8d1b8" stroke-width="1" opacity="0.75"/>
<text x="83" y="270.0" text-anchor="end" font-family="Avenir, Helvetica, Arial, sans-serif" font-size="13" fill="#6e725f">11.8</text>
<line x1="95" y1="222.5" x2="1040" y2="222.5" stroke="#d8d1b8" stroke-width="1" opacity="0.75"/>
<text x="83" y="227.5" text-anchor="end" font-family="Avenir, Helvetica, Arial, sans-serif" font-size="13" fill="#6e725f">12.8</text>
<line x1="95" y1="180.0" x2="1040" y2="180.0" stroke="#d8d1b8" stroke-width="1" opacity="0.75"/>
<text x="83" y="185.0" text-anchor="end" font-family="Avenir, Helvetica, Arial, sans-serif" font-size="13" fill="#6e725f">13.8</text>
<line x1="95" y1="137.5" x2="1040" y2="137.5" stroke="#d8d1b8" stroke-width="1" opacity="0.75"/>
<text x="83" y="142.5" text-anchor="end" font-family="Avenir, Helvetica, Arial, sans-serif" font-size="13" fill="#6e725f">14.7</text>
<line x1="95" y1="95.0" x2="1040" y2="95.0" stroke="#d8d1b8" stroke-width="1" opacity="0.75"/>
<text x="83" y="100.0" text-anchor="end" font-family="Avenir, Helvetica, Arial, sans-serif" font-size="13" fill="#6e725f">15.7</text>
<text x="45" y="123" font-family="Avenir, Helvetica, Arial, sans-serif" font-size="17" font-weight="700" fill="#283328">Speed</text>
<text x="45" y="145" font-family="Avenir, Helvetica, Arial, sans-serif" font-size="13" fill="#6e725f">mph</text>
<polyline points="95.0,204.0 284.0,247.6 473.0,169.1 662.0,156.0 851.0,164.7 1040.0,134.2" fill="none" stroke="#216869" stroke-width="4" stroke-linecap="round" stroke-linejoin="round" />
<circle cx="95.0" cy="204.0" r="5" fill="#216869" stroke="#fff" stroke-width="1.6" />
<circle cx="284.0" cy="247.6" r="5" fill="#216869" stroke="#fff" stroke-width="1.6" />
<circle cx="473.0" cy="169.1" r="5" fill="#216869" stroke="#fff" stroke-width="1.6" />
<circle cx="662.0" cy="156.0" r="5" fill="#216869" stroke="#fff" stroke-width="1.6" />
<circle cx="851.0" cy="164.7" r="5" fill="#216869" stroke="#fff" stroke-width="1.6" />
<circle cx="1040.0" cy="134.2" r="5" fill="#216869" stroke="#fff" stroke-width="1.6" />
<line x1="780" y1="119" x2="810" y2="119" stroke="#216869" stroke-width="4" stroke-linecap="round"/>
<text x="820" y="124" font-family="Avenir, Helvetica, Arial, sans-serif" font-size="14" fill="#37423a">Avg speed</text>
<polyline points="95.0,156.0 284.0,116.8 473.0,121.2 662.0,138.6 851.0,142.9 1040.0,112.4" fill="none" stroke="#d97904" stroke-width="4" stroke-linecap="round" stroke-linejoin="round" />
<circle cx="95.0" cy="156.0" r="5" fill="#d97904" stroke="#fff" stroke-width="1.6" />
<circle cx="284.0" cy="116.8" r="5" fill="#d97904" stroke="#fff" stroke-width="1.6" />
<circle cx="473.0" cy="121.2" r="5" fill="#d97904" stroke="#fff" stroke-width="1.6" />
<circle cx="662.0" cy="138.6" r="5" fill="#d97904" stroke="#fff" stroke-width="1.6" />
<circle cx="851.0" cy="142.9" r="5" fill="#d97904" stroke="#fff" stroke-width="1.6" />
<circle cx="1040.0" cy="112.4" r="5" fill="#d97904" stroke="#fff" stroke-width="1.6" />
<line x1="780" y1="143" x2="810" y2="143" stroke="#d97904" stroke-width="4" stroke-linecap="round"/>
<text x="820" y="148" font-family="Avenir, Helvetica, Arial, sans-serif" font-size="14" fill="#37423a">Moving avg speed</text>
<rect x="95" y="320" width="945" height="170" rx="14" fill="#fffdf5" stroke="#dfd8bd"/>
<line x1="95" y1="490.0" x2="1040" y2="490.0" stroke="#d8d1b8" stroke-width="1" opacity="0.75"/>
<text x="83" y="495.0" text-anchor="end" font-family="Avenir, Helvetica, Arial, sans-serif" font-size="13" fill="#6e725f">110.0</text>
<line x1="95" y1="447.5" x2="1040" y2="447.5" stroke="#d8d1b8" stroke-width="1" opacity="0.75"/>
<text x="83" y="452.5" text-anchor="end" font-family="Avenir, Helvetica, Arial, sans-serif" font-size="13" fill="#6e725f">116.0</text>
<line x1="95" y1="405.0" x2="1040" y2="405.0" stroke="#d8d1b8" stroke-width="1" opacity="0.75"/>
<text x="83" y="410.0" text-anchor="end" font-family="Avenir, Helvetica, Arial, sans-serif" font-size="13" fill="#6e725f">122.0</text>
<line x1="95" y1="362.5" x2="1040" y2="362.5" stroke="#d8d1b8" stroke-width="1" opacity="0.75"/>
<text x="83" y="367.5" text-anchor="end" font-family="Avenir, Helvetica, Arial, sans-serif" font-size="13" fill="#6e725f">128.0</text>
<line x1="95" y1="320.0" x2="1040" y2="320.0" stroke="#d8d1b8" stroke-width="1" opacity="0.75"/>
<text x="83" y="325.0" text-anchor="end" font-family="Avenir, Helvetica, Arial, sans-serif" font-size="13" fill="#6e725f">134.0</text>
<text x="45" y="348" font-family="Avenir, Helvetica, Arial, sans-serif" font-size="17" font-weight="700" fill="#283328">Heart Rate</text>
<text x="45" y="370" font-family="Avenir, Helvetica, Arial, sans-serif" font-size="13" fill="#6e725f">bpm</text>
<polyline points="95.0,426.2 284.0,468.8 473.0,341.2 662.0,341.2 851.0,341.2 1040.0,362.5" fill="none" stroke="#b23a48" stroke-width="4" stroke-linecap="round" stroke-linejoin="round" />
<circle cx="95.0" cy="426.2" r="5" fill="#b23a48" stroke="#fff" stroke-width="1.6" />
<circle cx="284.0" cy="468.8" r="5" fill="#b23a48" stroke="#fff" stroke-width="1.6" />
<circle cx="473.0" cy="341.2" r="5" fill="#b23a48" stroke="#fff" stroke-width="1.6" />
<circle cx="662.0" cy="341.2" r="5" fill="#b23a48" stroke="#fff" stroke-width="1.6" />
<circle cx="851.0" cy="341.2" r="5" fill="#b23a48" stroke="#fff" stroke-width="1.6" />
<circle cx="1040.0" cy="362.5" r="5" fill="#b23a48" stroke="#fff" stroke-width="1.6" />
<line x1="780" y1="344" x2="810" y2="344" stroke="#b23a48" stroke-width="4" stroke-linecap="round"/>
<text x="820" y="349" font-family="Avenir, Helvetica, Arial, sans-serif" font-size="14" fill="#37423a">Avg HR</text>
<rect x="95" y="545" width="945" height="170" rx="14" fill="#fffdf5" stroke="#dfd8bd"/>
<line x1="95" y1="715.0" x2="1040" y2="715.0" stroke="#d8d1b8" stroke-width="1" opacity="0.75"/>
<text x="83" y="720.0" text-anchor="end" font-family="Avenir, Helvetica, Arial, sans-serif" font-size="13" fill="#6e725f">59.0</text>
<line x1="95" y1="672.5" x2="1040" y2="672.5" stroke="#d8d1b8" stroke-width="1" opacity="0.75"/>
<text x="83" y="677.5" text-anchor="end" font-family="Avenir, Helvetica, Arial, sans-serif" font-size="13" fill="#6e725f">61.2</text>
<line x1="95" y1="630.0" x2="1040" y2="630.0" stroke="#d8d1b8" stroke-width="1" opacity="0.75"/>
<text x="83" y="635.0" text-anchor="end" font-family="Avenir, Helvetica, Arial, sans-serif" font-size="13" fill="#6e725f">63.5</text>
<line x1="95" y1="587.5" x2="1040" y2="587.5" stroke="#d8d1b8" stroke-width="1" opacity="0.75"/>
<text x="83" y="592.5" text-anchor="end" font-family="Avenir, Helvetica, Arial, sans-serif" font-size="13" fill="#6e725f">65.8</text>
<line x1="95" y1="545.0" x2="1040" y2="545.0" stroke="#d8d1b8" stroke-width="1" opacity="0.75"/>
<text x="83" y="550.0" text-anchor="end" font-family="Avenir, Helvetica, Arial, sans-serif" font-size="13" fill="#6e725f">68.0</text>
<text x="45" y="573" font-family="Avenir, Helvetica, Arial, sans-serif" font-size="17" font-weight="700" fill="#283328">Cadence</text>
<text x="45" y="595" font-family="Avenir, Helvetica, Arial, sans-serif" font-size="13" fill="#6e725f">rpm</text>
<polyline points="95.0,658.3 284.0,582.8 473.0,677.2 662.0,658.3 851.0,677.2 1040.0,582.8" fill="none" stroke="#4d4c7d" stroke-width="4" stroke-linecap="round" stroke-linejoin="round" />
<circle cx="95.0" cy="658.3" r="5" fill="#4d4c7d" stroke="#fff" stroke-width="1.6" />
<circle cx="284.0" cy="582.8" r="5" fill="#4d4c7d" stroke="#fff" stroke-width="1.6" />
<circle cx="473.0" cy="677.2" r="5" fill="#4d4c7d" stroke="#fff" stroke-width="1.6" />
<circle cx="662.0" cy="658.3" r="5" fill="#4d4c7d" stroke="#fff" stroke-width="1.6" />
<circle cx="851.0" cy="677.2" r="5" fill="#4d4c7d" stroke="#fff" stroke-width="1.6" />
<circle cx="1040.0" cy="582.8" r="5" fill="#4d4c7d" stroke="#fff" stroke-width="1.6" />
<line x1="780" y1="569" x2="810" y2="569" stroke="#4d4c7d" stroke-width="4" stroke-linecap="round"/>
<text x="820" y="574" font-family="Avenir, Helvetica, Arial, sans-serif" font-size="14" fill="#37423a">Avg cadence</text>
<text x="95.0" y="743" text-anchor="middle" font-family="Avenir, Helvetica, Arial, sans-serif" font-size="15" fill="#37423a">1</text>
<text x="95.0" y="762" text-anchor="middle" font-family="Avenir, Helvetica, Arial, sans-serif" font-size="11" fill="#7a7d6c">8266</text>
<text x="284.0" y="743" text-anchor="middle" font-family="Avenir, Helvetica, Arial, sans-serif" font-size="15" fill="#37423a">2</text>
<text x="284.0" y="762" text-anchor="middle" font-family="Avenir, Helvetica, Arial, sans-serif" font-size="11" fill="#7a7d6c">9934</text>
<text x="473.0" y="743" text-anchor="middle" font-family="Avenir, Helvetica, Arial, sans-serif" font-size="15" fill="#37423a">3</text>
<text x="473.0" y="762" text-anchor="middle" font-family="Avenir, Helvetica, Arial, sans-serif" font-size="11" fill="#7a7d6c">3174</text>
<text x="662.0" y="743" text-anchor="middle" font-family="Avenir, Helvetica, Arial, sans-serif" font-size="15" fill="#37423a">4</text>
<text x="662.0" y="762" text-anchor="middle" font-family="Avenir, Helvetica, Arial, sans-serif" font-size="11" fill="#7a7d6c">3203</text>
<text x="851.0" y="743" text-anchor="middle" font-family="Avenir, Helvetica, Arial, sans-serif" font-size="15" fill="#37423a">5</text>
<text x="851.0" y="762" text-anchor="middle" font-family="Avenir, Helvetica, Arial, sans-serif" font-size="11" fill="#7a7d6c">5913</text>
<text x="1040.0" y="743" text-anchor="middle" font-family="Avenir, Helvetica, Arial, sans-serif" font-size="15" fill="#37423a">6</text>
<text x="1040.0" y="762" text-anchor="middle" font-family="Avenir, Helvetica, Arial, sans-serif" font-size="11" fill="#7a7d6c">3446</text>
<text x="550" y="735" text-anchor="middle" font-family="Avenir, Helvetica, Arial, sans-serif" font-size="13" fill="#6e725f">Ride order sorted by Garmin activity ID; small labels show the last four digits of the activity ID.</text>
</svg>